<!-- Generated by IcoMoon.io -->
<svg version="1.1" xmlns="http://www.w3.org/2000/svg" width="32" height="32" viewBox="0 0 32 32">
<title>manttek-logo</title>
<path d="M28.105 5.669c0.344 0.056 0.689 0.111 0.892 0.637s0.267 1.523 0.377 3.648c0.11 2.125 0.267 5.378 0.457 8.317s0.413 5.562 0.077 7.369c-0.336 1.806-1.232 2.795-3.329 3.329s-5.396 0.616-8.293 0.044c-2.897-0.572-5.392-1.796-7.207-1.313s-2.951 2.674-3.716 3.1c-0.765 0.426-1.161-0.914-1.298-3.36s-0.017-5.997 0-9.626c0.017-3.629-0.069-7.336 0.608-9.252s2.118-2.042 4.658-2.256c2.539-0.214 6.177-0.516 9.156-0.637s5.299-0.061 7.619 0zM20.558 0.001c-1.227 0.002-3.222 0.042-5.218 0.082h-0.023c-2.239 0.128-4.481 0.256-6.489 0.406s-3.831 0.29-5.184 1.101h-0c-1.353 0.811-2.011 2.28-2.317 4.575s-0.322 5.519-0.345 8.517c-0.023 2.998-0.049 5.77 0.030 7.497s0.328 2.557 1.482 4.41c0.577 0.926 1.389 2.151 2.155 3.183 0.383 0.516 0.752 0.983 1.085 1.348s0.531 0.648 1.014 0.783c0.007 0.003 0.018 0 0.025 0.003 0.304 0.102 0.666 0.074 0.944-0.070 0.687-0.356 1.104-1.039 1.695-1.69s1.259-1.243 1.969-1.439c0.71-0.196 1.677-0.049 2.85 0.268s2.533 0.784 4.043 1.086c3.021 0.604 6.461 0.529 8.747-0.051 1.143-0.29 2.022-0.722 2.658-1.374s0.995-1.497 1.179-2.493c0.369-1.993 0.126-4.684-0.071-7.687s-0.365-6.334-0.468-8.504-0.086-3.167-0.438-3.936c-0.048-0.105-0.107-0.2-0.171-0.287-0.101-0.17-0.22-0.334-0.364-0.501-0.363-0.419-0.855-0.865-1.41-1.322-1.111-0.914-2.475-1.862-3.464-2.505s-1.62-0.997-2.208-1.192c-0.588-0.196-1.094-0.206-1.708-0.205z"></path>
</svg>
